<?xml version="1.0" encoding="utf-8"?><svg xmlns="http://www.w3.org/2000/svg" xmlns:xlink="http://www.w3.org/1999/xlink"><symbol id="2-car-01" viewBox="0 0 555.7 495.74" xmlns="http://www.w3.org/2000/svg"><defs><style>.acls-1{fill:none;stroke:#020000;stroke-miterlimit:10;stroke-width:15px}.acls-2{fill:#020000}</style></defs><path d="M476.51 14.13h-41.73a6.92 6.92 0 00-4.92 2L320.6 125.43h-59.73v-48.7a7 7 0 00-2-4.91l-55.68-55.65a7 7 0 00-11.88 4.92v69.56h-69.56V21.09a7 7 0 00-11.87-4.92L54.23 71.82a6.92 6.92 0 00-2 4.91v55.65a6.92 6.92 0 002 4.92l53.61 53.61v247.54a7 7 0 007 7h83.48a7 7 0 006.95-7V236.73h20.87a7 7 0 007-7 48.7 48.7 0 0197.39 0 7 7 0 006.95 7h7v34.78a7 7 0 006.95 6.95h76.52v41.74H421a7 7 0 00-7 7v111.25a7 7 0 007 7h55.64a7 7 0 007-7V327.16a7 7 0 00-7-7h-6.95v-41.7h6.95a7 7 0 007-6.95V21.09a7 7 0 00-7.13-6.96zm-6.95 111.3h-55.65v-31.9l37.66-37.66h18zM191.31 431.5h-41.73V174.12a7 7 0 00-2-4.92l-41.78-41.73-9.8 9.83 39.7 39.7v254.5h-13.95V188a6.92 6.92 0 00-2-4.91L66.1 129.5V79.61l41.74-41.73V97.6a7 7 0 007 7h83.48a7 7 0 006.95-7V37.88L247 79.61v45.82h-20.91a7 7 0 00-4.92 2l-41.73 41.77a7 7 0 00-2 4.92v55.65a7 7 0 007 7h6.95zm90.43-264.34a62.68 62.68 0 00-62.21 55.65h-28.22V177L229 139.34h94.51a7 7 0 004.92-2L437.66 28h31.9v14h-20.87a7 7 0 00-4.92 2L402 85.73a7 7 0 00-2 4.92v41.73a7 7 0 006.95 7h62.61v83.47H344a62.7 62.7 0 00-62.26-55.69zm153 167h11l-18 18v-18zm34.78 18l-41.74 41.74v-22.13l37.66-37.66h4.08zm-41.74 61.41l41.74-41.74v22.07l-37.62 37.6h-4.08zm23.75 18l18-18v18zm4.08-111.3h-13.88v-41.81h13.92zm13.91-55.65H358.26v-27.89h111.3z"/><path d="M302.61 257.35a20.87 20.87 0 10-20.87 20.87 20.86 20.86 0 0020.87-20.87zm-27.82 0a7 7 0 116.95 7 6.95 6.95 0 01-6.95-7zM318.56 355a20.68 20.68 0 00-14.75-6.11h-2.4a20.64 20.64 0 00-13 4.63A20.82 20.82 0 00267.83 335H240a20.87 20.87 0 00-20.87 20.87v111.3A20.87 20.87 0 00240 488h27.82a20.87 20.87 0 0020.87-20.87v-38.86l53.61 53.62a20.73 20.73 0 0014.76 6.11h2.4a20.73 20.73 0 0014.75-6.11l19.67-19.68a20.74 20.74 0 006.12-14.76v-2.38a20.76 20.76 0 00-6.12-14.76zm-50.73 119.1H240a7 7 0 01-7-7v-11l2 2 9.83-9.84-11.87-11.87v-22.03l2 2 9.83-9.84-11.87-11.87v-22.02l2 2 9.83-9.83-11.38-11.39a6.89 6.89 0 016.47-4.56h27.82a6.91 6.91 0 016.47 4.56l-11.39 11.39 9.84 9.83 2-2v22.06l-11.88 11.87 9.84 9.84 2-2v22.07l-11.63 11.83 9.84 9.84 2-2v11a7 7 0 01-6.92 6.95zm118.25-26.64a7 7 0 01-2 4.93l-19.68 19.67a7 7 0 01-4.91 2h-2.4a7 7 0 01-4.91-2l-4.92-4.92h11v-13.92h-24.94l-13.92-13.91h11v-13.92h-24.91l-13.91-13.91h11v-13.91H288.7v-24.94l7.8-7.8a7 7 0 014.91-2h2.4a7 7 0 014.92 2l.84.84v24.94h13.91v-11l13.91 13.91v24.95h13.91v-11l13.92 13.91v24.94h13.91v-11l4.92 4.92a6.93 6.93 0 012 4.92z"/><circle class="acls-1" cx="25.27" cy="26.24" r="17.25"/><path class="acls-2" d="M16.62 79.18h17.29v17.29H16.62zm0 42.85h17.29v17.29H16.62zm0 42.84h17.29v17.29H16.62z"/><circle class="acls-1" cx="518.32" cy="467.74" r="17.25"/><path class="acls-2" d="M509.68 397.51h17.29v17.29h-17.29zm0-42.84h17.29v17.29h-17.29zm0-42.85h17.29v17.29h-17.29z"/></symbol><symbol viewBox="0 0 740.936 660.993" id="car" xmlns="http://www.w3.org/2000/svg"><defs><clipPath id="ba"><path d="M0 495.745h555.702V0H0z"/></clipPath></defs><g clip-path="url(#ba)" transform="matrix(1.33333 0 0 -1.33333 0 660.993)"><path d="M469.558 231.194H358.259v27.825h111.299zm-13.912-55.65h-13.913v41.737h13.913zM451.57 64.246l17.988 17.989V64.246zm-23.749 17.989l41.737 41.737v-22.065l-37.661-37.661h-4.076zm41.737 61.409l-41.737-41.737v22.065l37.661 37.66h4.076zm-34.781 17.988h11.033l-17.989-17.988v17.988zM281.742 328.58c-31.869-.039-58.637-23.982-62.216-55.649h-28.214v45.813l37.66 37.661h94.507c1.845 0 3.614.733 4.918 2.038l109.26 109.26h31.901v-13.912H448.69a6.962 6.962 0 01-4.918-2.038l-41.737-41.737a6.952 6.952 0 01-2.038-4.918v-41.737a6.956 6.956 0 016.956-6.956h62.605v-83.474h-125.6c-3.578 31.667-30.347 55.61-62.216 55.649m-90.43-264.334h-41.737v257.378a6.952 6.952 0 01-2.038 4.918L105.8 368.279l-9.836-9.836 39.699-39.699V64.246H121.75v243.465a6.95 6.95 0 01-2.038 4.918l-53.611 53.612v49.889l41.737 41.737v-59.726a6.956 6.956 0 016.956-6.956h83.474a6.956 6.956 0 016.956 6.956v59.726l41.738-41.737v-45.813h-20.869a6.956 6.956 0 01-4.918-2.038l-41.737-41.737a6.961 6.961 0 01-2.039-4.918v-55.649a6.956 6.956 0 016.957-6.956h6.956zm278.246 306.071h-55.649v31.901l37.661 37.661h17.988zm6.956 111.299h-41.737a6.959 6.959 0 01-4.918-2.039l-109.26-109.26h-59.725v48.693a6.96 6.96 0 01-2.038 4.918l-55.65 55.649a6.957 6.957 0 01-11.874-4.917v-69.562H121.75v69.562a6.955 6.955 0 01-11.874 4.917l-55.649-55.649a6.952 6.952 0 01-2.038-4.918v-55.649c0-1.845.733-3.614 2.038-4.918l53.611-53.612V57.289a6.957 6.957 0 016.956-6.956h83.474a6.957 6.957 0 016.956 6.956v201.73h20.869a6.956 6.956 0 016.956 6.956c0 26.893 21.8 48.692 48.693 48.692 26.893 0 48.693-21.799 48.693-48.692a6.956 6.956 0 016.956-6.956h6.957v-34.781a6.956 6.956 0 016.956-6.956h76.517v-41.738h-6.956a6.956 6.956 0 01-6.956-6.956V57.289a6.957 6.957 0 016.956-6.956h55.649a6.958 6.958 0 016.957 6.956v111.299a6.956 6.956 0 01-6.957 6.956h-6.956v41.738h6.956a6.956 6.956 0 016.957 6.956V474.66a6.957 6.957 0 01-6.957 6.956"/><path d="M274.786 238.39a6.956 6.956 0 1013.912 0 6.956 6.956 0 10-13.912 0m27.824 0c0 11.525-9.343 20.868-20.868 20.868-11.525 0-20.868-9.343-20.868-20.868 0-11.525 9.343-20.868 20.868-20.868 11.525 0 20.868 9.343 20.868 20.868m83.475-190.098a6.958 6.958 0 00-2.038-4.925l-19.673-19.672a7.016 7.016 0 00-4.918-2.038h-2.392a7.014 7.014 0 00-4.918 2.038l-4.918 4.918h11.032v13.912h-24.945l-13.912 13.913h11.033V70.35H305.49l-13.912 13.912h11.032v13.913h-13.912v24.944l7.798 7.798a7.02 7.02 0 004.918 2.038h2.394a7.021 7.021 0 004.918-2.038l.84-.842v-24.944h13.914v11.032l13.912-13.912V77.306h13.912V88.34l13.912-13.913V49.481h13.913v11.033l4.918-4.918a6.96 6.96 0 002.038-4.925zM267.83 21.657h-27.825a6.956 6.956 0 00-6.956 6.956v11.033l2.038-2.039 9.836 9.836-11.874 11.874v22.065l2.038-2.038 9.836 9.837-11.874 11.874v22.064l2.038-2.038 9.836 9.836-11.387 11.388a6.908 6.908 0 006.469 4.562h27.825a6.907 6.907 0 006.469-4.562l-11.387-11.388 9.836-9.836 2.038 2.038v-22.064L262.912 89.18l9.836-9.836 2.038 2.038V59.317l-11.874-11.874 9.836-9.836 2.038 2.04V28.612a6.956 6.956 0 00-6.956-6.956m50.732 119.096a20.71 20.71 0 01-14.754 6.114h-2.394a20.635 20.635 0 01-12.952-4.633c-1.154 10.533-10.037 18.517-20.632 18.546h-27.825c-11.525 0-20.868-9.343-20.868-20.869V28.613c0-11.525 9.343-20.869 20.868-20.869h27.825c11.526 0 20.868 9.344 20.868 20.87V67.47l53.612-53.612a20.722 20.722 0 0114.754-6.114h2.392a20.718 20.718 0 0114.754 6.115l19.673 19.672a20.714 20.714 0 016.114 14.761v2.38a20.714 20.714 0 01-6.114 14.76zM42.52 469.503c0-9.528-7.725-17.251-17.252-17.251-9.528 0-17.252 7.723-17.252 17.25 0 9.529 7.724 17.252 17.252 17.252 9.527 0 17.251-7.723 17.251-17.251zM33.911 399.277H16.624v17.286h17.287zm0-42.845H16.624v17.287h17.287zm0-42.845H16.624v17.287h17.287zM535.574 28.008c0 9.527-7.724 17.252-17.252 17.252-9.527 0-17.251-7.725-17.251-17.252s7.724-17.25 17.251-17.25c9.528 0 17.252 7.723 17.252 17.25zM526.966 98.235H509.68V80.948h17.286zm0 42.844H509.68v-17.287h17.286zm0 42.844H509.68v-17.286h17.286z"/></g></symbol><symbol viewBox="-4 0 504 504" id="main" xmlns="http://www.w3.org/2000/svg"><path d="M472 456c-13.23 0-24 10.77-24 24s10.77 24 24 24 24-10.77 24-24-10.77-24-24-24zm0 32c-4.406 0-8-3.586-8-8s3.594-8 8-8 8 3.586 8 8-3.594 8-8 8zM48 24C48 10.77 37.23 0 24 0S0 10.77 0 24s10.77 24 24 24 24-10.77 24-24zm-32 0c0-4.406 3.594-8 8-8s8 3.594 8 8-3.594 8-8 8-8-3.594-8-8zm413.77 293.031l-15.801-31.597c3.351-6.801 6.222-13.672 8.582-20.512L456 253.77v-91.54l-33.45-11.152c-2.35-6.84-5.23-13.71-8.581-20.512l15.816-31.629-64.722-64.722-31.63 15.816c-6.8-3.351-13.671-6.23-20.511-8.582L301.77 8h-91.54l-11.152 33.45c-6.84 2.35-13.71 5.23-20.512 8.581l-31.628-15.816-64.723 64.722 15.816 31.63c-3.351 6.8-6.23 13.671-8.582 20.511L56 162.23v91.532l33.45 11.148c2.335 6.793 5.175 13.602 8.495 20.348L87.656 304H40v160h56v-24h60.688l24 24H224v8c0 17.648 14.352 32 32 32s32-14.352 32-32v-8h56.008c13.23 0 24-10.77 24-24 0-6.168-2.406-11.742-6.238-16 3.84-4.258 6.238-9.832 6.238-16s-2.406-11.742-6.238-16a23.829 23.829 0 005.87-12.344zm-315.68-35.32c-4.403-8.453-7.992-17.047-10.676-25.527l-1.23-3.887L72 242.23v-68.468l30.184-10.059 1.222-3.894c2.672-8.473 6.266-17.067 10.672-25.52l1.883-3.625-14.281-28.566 48.41-48.41 28.566 14.28 3.625-1.878c8.461-4.41 17.047-8 25.52-10.676l3.894-1.223L221.77 24h68.468l10.059 30.184 3.894 1.222c8.473 2.672 17.067 6.266 25.52 10.672l3.625 1.883 28.566-14.281 48.41 48.41-14.28 28.566 1.878 3.625c4.41 8.461 8 17.047 10.676 25.52l1.223 3.894L440 173.77v68.468l-30.184 10.059-1.23 3.887c-2.684 8.48-6.273 17.074-10.676 25.527l-1.879 3.625 14.297 28.586-47.273 47.637A24.747 24.747 0 00361.77 360c3.84-4.258 6.238-9.832 6.238-16 0-12.48-9.61-22.64-21.793-23.777C380.152 293.023 400 252.207 400 208c0-79.398-64.602-144-144-144s-144 64.602-144 144c0 43.672 19.855 84.754 53.559 112h-68.43l18.933-34.496zM352.008 408c0 4.414-3.594 8-8 8H280c-4.406 0-8-3.586-8-8s3.594-8 8-8h64.008c4.406 0 8 3.586 8 8zm-115.32-200h38.624L288 195.312V160c8.824 0 16 7.176 16 16v36.688L276.687 240h-41.375L208 212.687V176c0-8.824 7.176-16 16-16v35.313zM240 256h32v32h-32zm48-4.688l32-32V176c0-17.648-14.352-32-32-32h-16v44.688L268.687 192h-25.375L240 188.687V144h-16c-17.648 0-32 14.352-32 32v43.313l32 32V288h-19.313l-.503.504C176.87 270.879 160 240.664 160 208c0-52.938 43.062-96 96-96s96 43.062 96 96c0 32.426-16.2 62.121-43.313 80H288zM368 208c0-61.762-50.238-112-112-112s-112 50.238-112 112c0 36.953 18.383 71.36 48.535 92.152l-11.52 11.52C147.794 287.609 128 249.098 128 208c0-70.574 57.426-128 128-128s128 57.426 128 128c0 39.535-17.871 76.016-48.383 100.2-.914-5.673-3.808-10.634-7.969-14.24C353.145 272.794 368 241.626 368 208zm-23.992 128c4.406 0 8 3.586 8 8s-3.594 8-8 8H280c-4.406 0-8-3.586-8-8s3.594-8 8-8zM280 384c-4.406 0-8-3.586-8-8s3.594-8 8-8h64.008c4.406 0 8 3.586 8 8s-3.594 8-8 8zM80 448H56V320h24zm107.312 0l-24-24H96v-88h83.312l32-32H312c4.406 0 8 3.586 8 8s-3.594 8-8 8h-83.313l-34.343 34.344 11.312 11.312L224 347.312V448zM256 488c-8.824 0-16-7.176-16-16V336h17.473c-.899 2.512-1.473 5.184-1.473 8 0 6.168 2.406 11.742 6.238 16-3.84 4.258-6.238 9.832-6.238 16s2.406 11.742 6.238 16c-3.84 4.258-6.238 9.832-6.238 16s2.406 11.742 6.238 16c-3.84 4.258-6.238 9.832-6.238 16 0 10.414 6.71 19.215 16 22.527V472c0 8.824-7.176 16-16 16zm88.008-40H280c-4.406 0-8-3.586-8-8s3.594-8 8-8h64.008c4.406 0 8 3.586 8 8s-3.594 8-8 8zM16 72h16v16H16zm0 40h16v16H16zm0 40h16v16H16zm448 184h16v16h-16zm0 40h16v16h-16zm0 40h16v16h-16zm0 0"/></symbol><symbol id="telegram-01" viewBox="0 0 595.28 841.89" xmlns="http://www.w3.org/2000/svg"><defs><clipPath id="dclip-path"><path class="dcls-1" d="M41 204.89h512v434H41z"/></clipPath><style>.dcls-1{fill:none}.dcls-2{clip-path:url(#dclip-path)}</style></defs><path d="M545.09 216.75c-6.25-7.65-15.62-11.86-26.38-11.86a51.86 51.86 0 00-18.41 3.66L66.91 374c-23 8.78-26.1 21.95-25.9 29s4 20 27.5 27.51l.42.12 89.9 25.73 48.61 139c6.63 19 21.51 30.73 38.84 30.73 10.93 0 21.67-4.58 31.08-13.24l55.6-51.2 80.66 64.95.77.61a1.84 1.84 0 00.22.17c9 6.95 18.75 10.63 28.3 10.63 18.67 0 33.54-13.82 37.88-35.22l71-350.64c2.85-14.07.46-26.66-6.74-35.46zM188.9 451.49l173.44-88.6-108 114.75a14.91 14.91 0 00-3.64 6.68l-20.83 84.35zM257 590.82c-.71.66-1.44 1.25-2.16 1.8l19.32-78.25 35.15 28.3zm265.4-344.56l-71 350.64c-.68 3.36-2.86 11.17-8.48 11.17-2.77 0-6.25-1.52-9.82-4.26l-91.39-73.59-54.41-43.82 156.17-165.95a15 15 0 00-17.74-23.63L168.86 428l-91.12-26L511 236.58a22 22 0 017.71-1.69c.92 0 2.56.11 3.16.85.8 1 1.81 4.29.56 10.52zm0 0" class="dcls-2"/></symbol></svg>