<svg id="Слой_1" data-name="Слой 1" xmlns="http://www.w3.org/2000/svg" viewBox="0 0 555.7 495.74"><defs><style>.cls-1{fill:none;stroke:#020000;stroke-miterlimit:10;stroke-width:15px;}.cls-2{fill:#020000;}</style></defs><title>2-car</title><path d="M476.51,14.13H434.78a6.92,6.92,0,0,0-4.92,2L320.6,125.43H260.87V76.73a7,7,0,0,0-2-4.91L203.19,16.17a7,7,0,0,0-11.88,4.92V90.65H121.75V21.09a7,7,0,0,0-11.87-4.92L54.23,71.82a6.92,6.92,0,0,0-2,4.91v55.65a6.92,6.92,0,0,0,2,4.92l53.61,53.61V438.45a7,7,0,0,0,7,7h83.48a7,7,0,0,0,6.95-7V236.73h20.87a7,7,0,0,0,7-7,48.7,48.7,0,0,1,97.39,0,7,7,0,0,0,6.95,7h7v34.78a7,7,0,0,0,6.95,6.95h76.52V320.2h-6.95a7,7,0,0,0-7,7V438.45a7,7,0,0,0,7,7h55.64a7,7,0,0,0,7-7V327.16a7,7,0,0,0-7-7h-6.95V278.46h6.95a7,7,0,0,0,7-6.95V21.09A7,7,0,0,0,476.51,14.13Zm-6.95,111.3H413.91V93.53l37.66-37.66h18ZM191.31,431.5H149.58V174.12a7,7,0,0,0-2-4.92L105.8,127.47,96,137.3l39.7,39.7V431.5H121.75V188a6.92,6.92,0,0,0-2-4.91L66.1,129.5V79.61l41.74-41.73V97.6a7,7,0,0,0,7,7h83.48a7,7,0,0,0,6.95-7V37.88L247,79.61v45.82H226.09a7,7,0,0,0-4.92,2L179.44,169.2a7,7,0,0,0-2,4.92v55.65a7,7,0,0,0,7,7h6.95Zm90.43-264.34a62.68,62.68,0,0,0-62.21,55.65H191.31V177L229,139.34h94.51a7,7,0,0,0,4.92-2L437.66,28h31.9V42H448.69a7,7,0,0,0-4.92,2L402,85.73a7,7,0,0,0-2,4.92v41.73a7,7,0,0,0,6.95,7h62.61v83.47H344A62.7,62.7,0,0,0,281.74,167.16Zm153,167h11l-18,18v-18Zm34.78,18-41.74,41.74V371.77l37.66-37.66h4.08Zm-41.74,61.41,41.74-41.74v22.07L431.9,431.5h-4.08Zm23.75,18,18-18v18Zm4.08-111.3H441.73V278.46h13.92Zm13.91-55.65H358.26V236.73h111.3Z"/><path d="M302.61,257.35a20.87,20.87,0,1,0-20.87,20.87A20.86,20.86,0,0,0,302.61,257.35Zm-27.82,0a7,7,0,1,1,6.95,7A6.95,6.95,0,0,1,274.79,257.35Z"/><path d="M318.56,355a20.68,20.68,0,0,0-14.75-6.11h-2.4a20.64,20.64,0,0,0-13,4.63A20.82,20.82,0,0,0,267.83,335H240a20.87,20.87,0,0,0-20.87,20.87v111.3A20.87,20.87,0,0,0,240,488h27.82a20.87,20.87,0,0,0,20.87-20.87V428.27l53.61,53.62A20.73,20.73,0,0,0,357.06,488h2.4a20.73,20.73,0,0,0,14.75-6.11l19.67-19.68A20.74,20.74,0,0,0,400,447.45v-2.38a20.76,20.76,0,0,0-6.12-14.76Zm-50.73,119.1H240a7,7,0,0,1-7-7v-11l2,2,9.83-9.84-11.87-11.87V414.36l2,2,9.83-9.84-11.87-11.87V372.63l2,2,9.83-9.83-11.38-11.39a6.89,6.89,0,0,1,6.47-4.56h27.82a6.91,6.91,0,0,1,6.47,4.56l-11.39,11.39,9.84,9.83,2-2v22.06l-11.88,11.87,9.84,9.84,2-2v22.07L262.91,448.3l9.84,9.84,2-2v11A7,7,0,0,1,267.83,474.09Zm118.25-26.64a7,7,0,0,1-2,4.93l-19.68,19.67a7,7,0,0,1-4.91,2h-2.4a7,7,0,0,1-4.91-2l-4.92-4.92h11V453.22H333.32L319.4,439.31h11V425.39H305.49l-13.91-13.91h11V397.57H288.7V372.63l7.8-7.8a7,7,0,0,1,4.91-2h2.4a7,7,0,0,1,4.92,2l.84.84v24.94h13.91v-11l13.91,13.91v24.95H351.3v-11l13.92,13.91v24.94h13.91v-11l4.92,4.92a6.93,6.93,0,0,1,2,4.92Z"/><circle class="cls-1" cx="25.27" cy="26.24" r="17.25"/><rect class="cls-2" x="16.62" y="79.18" width="17.29" height="17.29"/><rect class="cls-2" x="16.62" y="122.03" width="17.29" height="17.29"/><rect class="cls-2" x="16.62" y="164.87" width="17.29" height="17.29"/><circle class="cls-1" cx="518.32" cy="467.74" r="17.25"/><rect class="cls-2" x="509.68" y="397.51" width="17.29" height="17.29"/><rect class="cls-2" x="509.68" y="354.67" width="17.29" height="17.29"/><rect class="cls-2" x="509.68" y="311.82" width="17.29" height="17.29"/></svg>