<?xml version="1.0" encoding="UTF-8" standalone="no"?>
<svg
   xmlns:dc="http://purl.org/dc/elements/1.1/"
   xmlns:cc="http://creativecommons.org/ns#"
   xmlns:rdf="http://www.w3.org/1999/02/22-rdf-syntax-ns#"
   xmlns:svg="http://www.w3.org/2000/svg"
   xmlns="http://www.w3.org/2000/svg"
   viewBox="0 0 740.93597 660.99335"
   height="660.99335"
   width="740.93597"
   xml:space="preserve"
   id="svg2"
   version="1.1"><metadata
     id="metadata8"><rdf:RDF><cc:Work
         rdf:about=""><dc:format>image/svg+xml</dc:format><dc:type
           rdf:resource="http://purl.org/dc/dcmitype/StillImage" /></cc:Work></rdf:RDF></metadata><defs
     id="defs6"><clipPath
       id="clipPath18"
       clipPathUnits="userSpaceOnUse"><path
         id="path16"
         d="M 0,495.745 H 555.702 V 0 H 0 Z" /></clipPath></defs><g
     transform="matrix(1.3333333,0,0,-1.3333333,0,660.99333)"
     id="g10"><g
       id="g12"><g
         clip-path="url(#clipPath18)"
         id="g14"><path
           id="path20"
           style="fill:#000000;fill-opacity:1;fill-rule:nonzero;stroke:none"
           d="M 469.558,231.194 H 358.259 v 27.825 h 111.299 z m -13.912,-55.65 h -13.913 v 41.737 h 13.913 z M 451.57,64.246 469.558,82.235 V 64.246 Z m -23.749,17.989 41.737,41.737 V 101.907 L 431.897,64.246 h -4.076 z m 41.737,61.409 -41.737,-41.737 v 22.065 l 37.661,37.66 h 4.076 z m -34.781,17.988 h 11.033 l -17.989,-17.988 v 17.988 z M 281.742,328.58 c -31.869,-0.039 -58.637,-23.982 -62.216,-55.649 h -28.214 v 45.813 l 37.66,37.661 h 94.507 c 1.845,0 3.614,0.733 4.918,2.038 l 109.26,109.26 h 31.901 V 453.791 H 448.69 c -1.844,-10e-4 -3.614,-0.734 -4.918,-2.038 l -41.737,-41.737 c -1.305,-1.304 -2.038,-3.073 -2.038,-4.918 v -41.737 c 0,-3.842 3.114,-6.956 6.956,-6.956 h 62.605 v -83.474 h -125.6 c -3.578,31.667 -30.347,55.61 -62.216,55.649 M 191.312,64.246 h -41.737 v 257.378 c 0,1.845 -0.733,3.614 -2.038,4.918 l -41.737,41.737 -9.836,-9.836 39.699,-39.699 V 64.246 H 121.75 v 243.465 c 0,1.845 -0.733,3.615 -2.038,4.918 l -53.611,53.612 v 49.889 l 41.737,41.737 v -59.726 c 0,-3.841 3.114,-6.956 6.956,-6.956 h 83.474 c 3.842,0 6.956,3.115 6.956,6.956 v 59.726 l 41.738,-41.737 v -45.813 h -20.869 c -1.845,0 -3.614,-0.734 -4.918,-2.038 l -41.737,-41.737 c -1.304,-1.304 -2.038,-3.073 -2.039,-4.918 v -55.649 c 0,-3.842 3.115,-6.956 6.957,-6.956 h 6.956 z m 278.246,306.071 h -55.649 v 31.901 l 37.661,37.661 h 17.988 z m 6.956,111.299 h -41.737 c -1.845,-10e-4 -3.613,-0.734 -4.918,-2.039 l -109.26,-109.26 h -59.725 v 48.693 c -0.001,1.845 -0.734,3.614 -2.038,4.918 l -55.65,55.649 c -2.716,2.716 -7.121,2.716 -9.838,-10e-4 -1.303,-1.304 -2.036,-3.073 -2.036,-4.916 V 405.098 H 121.75 v 69.562 c 0,3.841 -3.115,6.955 -6.957,6.954 -1.844,0 -3.613,-0.733 -4.917,-2.037 L 54.227,423.928 c -1.305,-1.304 -2.038,-3.073 -2.038,-4.918 v -55.649 c 0,-1.845 0.733,-3.614 2.038,-4.918 l 53.611,-53.612 V 57.289 c 0,-3.84 3.114,-6.956 6.956,-6.956 h 83.474 c 3.842,0 6.956,3.116 6.956,6.956 v 201.73 h 20.869 c 3.841,0 6.956,3.114 6.956,6.956 0,26.893 21.8,48.692 48.693,48.692 26.893,0 48.693,-21.799 48.693,-48.692 0,-3.842 3.115,-6.956 6.956,-6.956 h 6.957 v -34.781 c 0,-3.842 3.114,-6.956 6.956,-6.956 h 76.517 v -41.738 h -6.956 c -3.842,0 -6.956,-3.114 -6.956,-6.956 V 57.289 c 0,-3.84 3.114,-6.956 6.956,-6.956 h 55.649 c 3.842,0 6.957,3.116 6.957,6.956 v 111.299 c 0,3.842 -3.115,6.956 -6.957,6.956 h -6.956 v 41.738 h 6.956 c 3.842,0 6.957,3.114 6.957,6.956 V 474.66 c 0,3.841 -3.115,6.956 -6.957,6.956" /><g
           transform="translate(274.786,238.39)"
           id="g22"><path
             id="path24"
             style="fill:#000000;fill-opacity:1;fill-rule:nonzero;stroke:none"
             d="m 0,0 c 0,3.842 3.114,6.956 6.956,6.956 3.842,0 6.956,-3.114 6.956,-6.956 0,-3.842 -3.114,-6.956 -6.956,-6.956 C 3.114,-6.956 0,-3.842 0,0 m 27.824,0 c 0,11.525 -9.343,20.868 -20.868,20.868 -11.525,0 -20.868,-9.343 -20.868,-20.868 0,-11.525 9.343,-20.868 20.868,-20.868 11.525,0 20.868,9.343 20.868,20.868" /></g><g
           transform="translate(386.0848,48.2923)"
           id="g26"><path
             id="path28"
             style="fill:#000000;fill-opacity:1;fill-rule:nonzero;stroke:none"
             d="m 0,0 c 0.001,-1.848 -0.732,-3.619 -2.038,-4.925 l -19.673,-19.672 c -1.308,-1.299 -3.074,-2.031 -4.918,-2.038 h -2.392 c -1.844,0.007 -3.611,0.739 -4.918,2.038 l -4.918,4.918 h 11.032 V -5.767 H -52.77 L -66.682,8.146 h 11.033 V 22.058 H -80.595 L -94.507,35.97 h 11.032 v 13.913 h -13.912 v 24.944 l 7.798,7.798 c 1.309,1.299 3.075,2.031 4.918,2.038 h 2.394 c 1.842,-0.007 3.609,-0.739 4.918,-2.038 l 0.84,-0.842 V 56.839 h 13.914 V 67.871 L -48.693,53.959 V 29.014 h 13.912 V 40.047 L -20.869,26.134 V 1.189 H -6.956 V 12.222 L -2.038,7.304 C -0.732,5.998 0.001,4.226 0,2.379 Z m -118.255,-26.635 h -27.825 c -3.842,0 -6.956,3.114 -6.956,6.956 v 11.033 l 2.038,-2.039 9.836,9.836 -11.874,11.874 V 33.09 l 2.038,-2.038 9.836,9.837 -11.874,11.874 v 22.064 l 2.038,-2.038 9.836,9.836 -11.387,11.388 c 0.985,2.728 3.569,4.55 6.469,4.562 h 27.825 c 2.901,-0.012 5.484,-1.834 6.469,-4.562 l -11.387,-11.388 9.836,-9.836 2.038,2.038 V 52.763 l -11.874,-11.875 9.836,-9.836 2.038,2.038 V 11.025 l -11.874,-11.874 9.836,-9.836 2.038,2.039 v -11.033 c 0,-3.842 -3.114,-6.956 -6.956,-6.956 m 50.732,119.096 c -3.904,3.929 -9.217,6.131 -14.754,6.114 h -2.394 c -4.72,-0.017 -9.291,-1.653 -12.952,-4.633 -1.154,10.533 -10.037,18.517 -20.632,18.546 h -27.825 c -11.525,0 -20.868,-9.343 -20.868,-20.869 V -19.679 c 0,-11.525 9.343,-20.869 20.868,-20.869 h 27.825 c 11.526,0 20.868,9.344 20.868,20.869 v 38.857 l 53.612,-53.612 c 3.903,-3.927 9.216,-6.129 14.754,-6.114 h 2.392 c 5.538,-0.015 10.852,2.187 14.754,6.115 L 7.798,-14.761 C 11.728,-10.856 13.93,-5.54 13.912,0 V 2.379 C 13.93,7.919 11.728,13.235 7.798,17.14 Z" /></g><g
           transform="translate(42.5194,469.5028)"
           id="g30"><path
             id="path32"
             style="fill:none;stroke:#020000;stroke-width:15;stroke-linecap:butt;stroke-linejoin:miter;stroke-miterlimit:10;stroke-dasharray:none;stroke-opacity:1"
             d="m 0,0 c 0,-9.528 -7.724,-17.251 -17.251,-17.251 -9.528,0 -17.252,7.723 -17.252,17.251 0,9.528 7.724,17.251 17.252,17.251 C -7.724,17.251 0,9.528 0,0 Z" /></g><path
           id="path34"
           style="fill:#020000;fill-opacity:1;fill-rule:nonzero;stroke:none"
           d="M 33.911,399.277 H 16.624 v 17.286 h 17.287 z" /><path
           id="path36"
           style="fill:#020000;fill-opacity:1;fill-rule:nonzero;stroke:none"
           d="M 33.911,356.432 H 16.624 v 17.287 h 17.287 z" /><path
           id="path38"
           style="fill:#020000;fill-opacity:1;fill-rule:nonzero;stroke:none"
           d="M 33.911,313.587 H 16.624 v 17.287 h 17.287 z" /><g
           transform="translate(535.574,28.0081)"
           id="g40"><path
             id="path42"
             style="fill:none;stroke:#020000;stroke-width:15;stroke-linecap:butt;stroke-linejoin:miter;stroke-miterlimit:10;stroke-dasharray:none;stroke-opacity:1"
             d="m 0,0 c 0,9.527 -7.724,17.252 -17.252,17.252 -9.527,0 -17.251,-7.725 -17.251,-17.252 0,-9.527 7.724,-17.251 17.251,-17.251 C -7.724,-17.251 0,-9.527 0,0 Z" /></g><path
           id="path44"
           style="fill:#020000;fill-opacity:1;fill-rule:nonzero;stroke:none"
           d="M 526.966,98.235 H 509.68 V 80.948 h 17.286 z" /><path
           id="path46"
           style="fill:#020000;fill-opacity:1;fill-rule:nonzero;stroke:none"
           d="M 526.966,141.079 H 509.68 v -17.287 h 17.286 z" /><path
           id="path48"
           style="fill:#020000;fill-opacity:1;fill-rule:nonzero;stroke:none"
           d="M 526.966,183.923 H 509.68 v -17.286 h 17.286 z" /></g></g></g>

</svg>