<svg id="Слой_1" data-name="Слой 1" xmlns="http://www.w3.org/2000/svg" xmlns:xlink="http://www.w3.org/1999/xlink" viewBox="0 0 595.28 841.89"><defs><style>.cls-1{fill:none;}.cls-2{clip-path:url(#clip-path);}</style><clipPath id="clip-path"><rect class="cls-1" x="41" y="204.89" width="512" height="434"/></clipPath></defs><title>telegram</title><g class="cls-2"><path d="M545.09,216.75c-6.25-7.65-15.62-11.86-26.38-11.86a51.86,51.86,0,0,0-18.41,3.66L66.91,374c-23,8.78-26.1,21.95-25.9,29s4,20,27.5,27.51l.42.12,89.9,25.73,48.61,139c6.63,19,21.51,30.73,38.84,30.73,10.93,0,21.67-4.58,31.08-13.24l55.6-51.2,80.66,64.95,0,0,.77.61a1.84,1.84,0,0,0,.22.17c9,6.95,18.75,10.63,28.3,10.63h0c18.67,0,33.54-13.82,37.88-35.22l71-350.64c2.85-14.07.46-26.66-6.74-35.46ZM188.9,451.49l173.44-88.6-108,114.75a14.91,14.91,0,0,0-3.64,6.68l-20.83,84.35ZM257,590.82c-.71.66-1.44,1.25-2.16,1.8l19.32-78.25,35.15,28.3Zm265.4-344.56-71,350.64c-.68,3.36-2.86,11.17-8.48,11.17-2.77,0-6.25-1.52-9.82-4.26l-91.39-73.59,0,0L287.3,486.4,443.47,320.45a15,15,0,0,0-17.74-23.63L168.86,428,77.74,402,511,236.58a22,22,0,0,1,7.71-1.69c.92,0,2.56.11,3.16.85.8,1,1.81,4.29.56,10.52Zm0,0"/></g></svg>